# xmcd CD database file
#
# Track frame offsets:
#	150
#	22812
#	41759
#	72890
#	95381
#	103857
#	116898
#	134145
#	144659
#
# Disc length: 2233 seconds
#
# Revision: 0
# Processed by: cddbd v1.5.1PL0 Copyright (c) Steve Scherf et al.
# Submitted via: CDex 1.51
#
DISCID=8408b709
DTITLE=Lidia Boccaccio - Cornamusa
DYEAR=2000
DGENRE=New Age
TTITLE0=The fair maid of Barra - The green hills of Tyrol
TTITLE1=Hieland soldier
TTITLE2=Skye Boath
TTITLE3=Farewell to Glemshalloch - Sheeman's
TTITLE4=Galla Water
TTITLE5=The banks of Allan Water - Lord Biron
TTITLE6=Hush hush
TTITLE7=Scotland the brave - Cock o' the North
TTITLE8=Amazing grace
EXTD=YEAR: 2000
EXTT0=
EXTT1=
EXTT2=
EXTT3=
EXTT4=
EXTT5=
EXTT6=
EXTT7=
EXTT8=
PLAYORDER=
